<?xml version="1.0" standalone="no"?>
<!DOCTYPE svg PUBLIC "-//W3C//DTD SVG 20010904//EN"
 "http://www.w3.org/TR/2001/REC-SVG-20010904/DTD/svg10.dtd">
<svg version="1.0" xmlns="http://www.w3.org/2000/svg"
 width="512.000000pt" height="512.000000pt" viewBox="0 0 512.000000 512.000000"
 preserveAspectRatio="xMidYMid meet">
<metadata>
Created by potrace 1.14, written by Peter Selinger 2001-2017
</metadata>
<g transform="translate(0.000000,512.000000) scale(0.100000,-0.100000)"
fill="#000000" stroke="none">
<path d="M2398 5115 c-2 -1 -40 -6 -85 -9 -46 -4 -93 -9 -105 -11 -12 -3 -40
-7 -63 -10 -272 -40 -609 -161 -875 -315 -228 -132 -476 -338 -644 -534 -22
-26 -51 -60 -64 -75 -48 -55 -173 -240 -224 -331 -149 -265 -251 -553 -303
-855 -3 -16 -7 -39 -9 -50 -25 -125 -27 -663 -2 -703 2 -4 7 -32 11 -62 19
-160 97 -430 179 -620 94 -217 253 -472 392 -630 108 -122 145 -161 227 -235
374 -340 784 -540 1302 -639 146 -28 504 -40 667 -24 127 14 267 39 408 73
103 26 348 112 406 143 11 6 62 32 114 58 650 323 1144 954 1319 1684 22 90
22 93 40 210 31 195 36 516 12 695 -69 511 -280 984 -609 1360 -38 44 -75 79
-81 77 -7 -1 -10 2 -7 7 12 19 -250 253 -368 329 -23 15 -43 29 -46 32 -3 4
-23 17 -45 30 -22 13 -42 27 -45 30 -9 10 -121 69 -245 129 -185 90 -457 180
-625 206 -25 4 -52 9 -60 10 -8 1 -38 6 -65 9 -28 4 -64 9 -80 12 -34 5 -422
14 -427 9z"/>
</g>
</svg>
